<svg width="25" height="25" viewBox="0 0 25 25" version="1.1" xmlns="http://www.w3.org/2000/svg" xmlns:xlink="http://www.w3.org/1999/xlink">
<title>arrow</title>
<desc>Created using Figma</desc>
<g id="Canvas" transform="translate(-16377 -3517)">
<g id="arrow">
<g id="Vector">
<use xlink:href="#path0_fill" transform="matrix(6.12323e-17 1 -1 6.12323e-17 16393.8 3524)"/>
</g>
<g id="Ellipse 9">
<mask id="mask0_outline_ins">
<use xlink:href="#path1_fill" fill="white" transform="translate(16377 3517)"/>
</mask>
<g mask="url(#mask0_outline_ins)">
<use xlink:href="#path2_stroke_2x" transform="translate(16377 3517)"/>
</g>
</g>
</g>
</g>
<defs>
<path id="path0_fill" d="M 5.75 2.62825L 10.1711 7L 11.5 5.68587L 5.75 1.4181e-08L -2.86819e-08 5.68587L 1.32895 7L 5.75 2.62825Z"/>
<path id="path1_fill" d="M 25 12.5C 25 19.4036 19.4036 25 12.5 25C 5.59644 25 0 19.4036 0 12.5C 0 5.59644 5.59644 0 12.5 0C 19.4036 0 25 5.59644 25 12.5Z"/>
<path id="path2_stroke_2x" d="M 23 12.5C 23 18.299 18.299 23 12.5 23L 12.5 27C 20.5081 27 27 20.5081 27 12.5L 23 12.5ZM 12.5 23C 6.70101 23 2 18.299 2 12.5L -2 12.5C -2 20.5081 4.49187 27 12.5 27L 12.5 23ZM 2 12.5C 2 6.70101 6.70101 2 12.5 2L 12.5 -2C 4.49187 -2 -2 4.49187 -2 12.5L 2 12.5ZM 12.5 2C 18.299 2 23 6.70101 23 12.5L 27 12.5C 27 4.49187 20.5081 -2 12.5 -2L 12.5 2Z"/>
</defs>
</svg>
