<svg width="304" height="134" viewBox="0 0 304 134" version="1.1" xmlns="http://www.w3.org/2000/svg" xmlns:xlink="http://www.w3.org/1999/xlink">
<title>Find Us On</title>
<desc>Created using Figma</desc>
<g id="Canvas" transform="translate(-13526 -6603)">
<g id="Find Us On">
<g id="TripAdvisorLogo">
<g id="Group">
<g id="Vector">
<use xlink:href="#path0_fill" transform="translate(13771.3 6717.06)" fill="#FFFFFF"/>
</g>
</g>
<g id="Group">
<g id="Vector">
<use xlink:href="#path1_fill" transform="translate(13806.5 6717.06)" fill="#FFFFFF"/>
</g>
</g>
<g id="Group">
<g id="Vector">
<use xlink:href="#path2_fill" transform="translate(13757 6697)" fill="#FFFFFF"/>
</g>
</g>
<g id="Group">
<g id="Vector">
<use xlink:href="#path3_fill" transform="translate(13765.6 6711.51)" fill="#FFFFFF"/>
</g>
</g>
<g id="Group">
<g id="Vector">
<use xlink:href="#path4_fill" transform="translate(13800.8 6711.51)" fill="#FFFFFF"/>
</g>
</g>
</g>
<g id="FacebookLogo">
<use xlink:href="#path5_fill" transform="translate(13526 6697)" fill="#FFFFFF"/>
</g>
<g id="VimeoLogo">
<g id="Group">
<g id="Vector">
<use xlink:href="#path6_fill" transform="translate(13676 6697)" fill="#FFFFFF"/>
</g>
</g>
</g>
<g id="InstagramLogo">
<g id="Vector">
<use xlink:href="#path7_fill" transform="translate(13601 6697)" fill="#FFFFFF"/>
</g>
<g id="Vector">
<use xlink:href="#path8_fill" transform="translate(13610.7 6706.72)" fill="#FFFFFF"/>
</g>
<g id="Vector">
<use xlink:href="#path9_fill" transform="translate(13629.3 6703.92)" fill="#FFFFFF"/>
</g>
</g>
<g id="Find us on">
<use xlink:href="#path10_fill" transform="translate(13719.3 6599)" fill="#FFFFFF"/>
</g>
</g>
</g>
<defs>
<path id="path0_fill" d="M 5.91377 2.84556C 5.91377 4.41061 4.58317 5.69111 2.95689 5.69111C 1.3306 5.69111 -2.81991e-07 4.41061 -2.81991e-07 2.84556C -2.81991e-07 1.2805 1.3306 0 2.95689 0C 4.58317 0 5.91377 1.2805 5.91377 2.84556Z"/>
<path id="path1_fill" d="M 5.91377 2.84556C 5.91377 4.41061 4.58317 5.69111 2.95689 5.69111C 1.3306 5.69111 0 4.41061 0 2.84556C 0 1.2805 1.3306 0 2.95689 0C 4.58317 0 5.91377 1.2805 5.91377 2.84556Z"/>
<path id="path2_fill" d="M 66.53 13.0896C 67.417 9.67489 69.9304 6.4025 69.9304 6.4025L 58.2507 6.4025C 51.7455 2.27644 43.7619 8.48042e-09 34.8913 8.48042e-09C 25.7249 8.48042e-09 17.4456 2.27644 10.9405 6.4025L 0 6.4025C 0 6.4025 2.6612 9.67489 3.40042 13.0896C 1.3306 15.9351 0 19.3498 0 23.049C 0 32.2971 7.83575 39.9801 17.5935 39.9801C 23.0637 39.9801 28.0904 37.5613 31.1952 33.5776L 34.8913 38.9841L 38.5874 33.5776C 40.2137 35.7117 42.4313 37.2768 45.0925 38.415C 49.38 40.2646 54.111 40.5492 58.5464 38.9841C 67.5649 35.7117 72.2959 26.0368 68.8955 17.3579C 68.3041 15.6506 67.5649 14.3701 66.53 13.0896ZM 51.8934 6.26022C 50.1192 6.26022 48.1973 6.68706 46.4231 7.25617C 41.9878 8.82122 38.5874 11.9513 36.5176 16.0774C 35.6305 17.927 35.187 19.9189 35.0391 21.9108C 34.4477 13.2318 27.0555 6.4025 17.8892 6.26022C 22.9159 4.12606 28.6818 3.13011 34.8913 3.13011C 41.2486 2.98783 46.8667 4.12606 51.8934 6.26022ZM 17.5935 36.5654C 9.90557 36.5654 3.54826 30.5897 3.54826 23.049C 3.54826 15.6506 9.75773 9.53261 17.5935 9.53261C 25.2814 9.53261 31.6387 15.5083 31.6387 23.049C 31.4908 30.4475 25.2814 36.5654 17.5935 36.5654ZM 57.3636 35.7117C 53.8153 36.9922 50.1192 36.85 46.7188 35.2849C 43.3184 33.7198 40.805 31.1588 39.4744 27.7442C 38.1438 24.3295 38.2917 20.7726 39.918 17.5002C 41.5443 14.2278 44.2055 11.8091 47.7537 10.5286C 54.9981 7.96756 63.1295 11.5245 65.7907 18.4961C 68.3041 25.4677 64.608 33.1507 57.3636 35.7117Z"/>
<path id="path3_fill" d="M 8.72282 5.42747e-07C 3.9918 5.42747e-07 2.81991e-07 3.69922 2.81991e-07 8.39439C 2.81991e-07 12.9473 3.84395 16.7888 8.72282 16.7888C 13.4538 16.7888 17.4456 13.0896 17.4456 8.39439C 17.4456 3.8415 13.4538 5.42747e-07 8.72282 5.42747e-07ZM 8.72282 13.8009C 5.61808 13.8009 3.10473 11.3822 3.10473 8.39439C 3.10473 5.40656 5.61808 2.98783 8.72282 2.98783C 11.8275 2.98783 14.3409 5.40656 14.3409 8.39439C 14.3409 11.3822 11.8275 13.8009 8.72282 13.8009Z"/>
<path id="path4_fill" d="M 8.72282 5.42747e-07C 3.9918 5.42747e-07 5.63981e-07 3.69922 5.63981e-07 8.39439C 5.63981e-07 12.9473 3.84395 16.7888 8.72282 16.7888C 13.4538 16.7888 17.4456 13.0896 17.4456 8.39439C 17.2978 3.8415 13.4538 5.42747e-07 8.72282 5.42747e-07ZM 8.72282 13.8009C 5.61809 13.8009 3.10473 11.3822 3.10473 8.39439C 3.10473 5.40656 5.61809 2.98783 8.72282 2.98783C 11.8275 2.98783 14.3409 5.40656 14.3409 8.39439C 14.3409 11.3822 11.8275 13.8009 8.72282 13.8009Z"/>
<path id="path5_fill" d="M 37.7961 -2.28682e-07L 2.2039 -2.28682e-07C 0.989503 -2.28682e-07 9.1507e-07 0.989135 9.1507e-07 2.20307L 9.1507e-07 37.7819C 9.1507e-07 38.9959 0.989503 39.985 2.2039 39.985L 21.3643 39.985L 21.3643 24.5036L 16.1469 24.5036L 16.1469 18.4638L 21.3643 18.4638L 21.3643 14.0127C 21.3643 8.84226 24.5277 6.03971 29.1304 6.03971C 31.3343 6.03971 33.2384 6.20457 33.7931 6.27951L 33.7931 11.6748L 30.5997 11.6748C 28.096 11.6748 27.6012 12.8587 27.6012 14.6122L 27.6012 18.4638L 33.5832 18.4638L 32.8036 24.5036L 27.6012 24.5036L 27.6012 40L 37.7961 40C 39.0105 40 40 39.0109 40 37.7969L 40 2.20307C 40 0.974148 39.0255 -2.28682e-07 37.7961 -2.28682e-07Z"/>
<path id="path6_fill" fill-rule="evenodd" d="M 39.1383 0.00672588C 32.768 -0.177151 28.5059 3.40845 26.2144 10.8555C 27.3601 10.3498 28.5059 10.12 29.6058 10.12C 31.9431 10.12 32.9513 11.4531 32.6763 14.0733C 32.5389 15.6822 31.5306 17.9807 29.6058 21.0607C 27.6809 24.1406 26.2602 25.6576 25.2978 25.6576C 24.0604 25.6576 22.9147 23.3132 21.9064 18.5783C 21.5398 17.1992 20.944 13.6596 20.0733 7.95941C 19.2483 2.71891 17.0485 0.236572 13.4738 0.604326C 11.9615 0.742234 9.71583 2.12131 6.69109 4.74156C 4.49128 6.76421 2.24564 8.74089 0 10.7635L 2.15398 13.5677C 4.2163 12.0966 5.40787 11.4071 5.72867 11.4071C 7.28687 11.4071 8.75341 13.8894 10.1283 18.8541C 11.3657 23.4051 12.6031 27.9561 13.8405 32.553C 15.6736 37.5177 17.9651 40 20.6232 40C 24.9312 40 30.2016 35.9087 36.4344 27.7262C 42.438 19.9114 45.5544 13.7515 45.7835 9.24655C 46.0585 3.22457 43.8587 0.144634 39.1383 0.00672588Z"/>
<path id="path7_fill" d="M 19.9921 3.60389C 25.3333 3.60389 25.9603 3.6277 28.0714 3.72296C 30.0238 3.81028 31.0794 4.13574 31.7857 4.41357C 32.7222 4.77873 33.3889 5.20738 34.0873 5.90593C 34.7857 6.60449 35.2222 7.27128 35.5794 8.20798C 35.8492 8.91447 36.1825 9.97023 36.2698 11.923C 36.3651 14.0345 36.3889 14.6616 36.3889 20.004C 36.3889 25.3463 36.3651 25.9734 36.2698 28.0849C 36.1825 30.0377 35.8571 31.0935 35.5794 31.8C 35.2143 32.7367 34.7857 33.4035 34.0873 34.102C 33.3889 34.8006 32.7222 35.2371 31.7857 35.5944C 31.0794 35.8643 30.0238 36.1977 28.0714 36.285C 25.9603 36.3802 25.3333 36.404 19.9921 36.404C 14.6508 36.404 14.0238 36.3802 11.9127 36.285C 9.96032 36.1977 8.90476 35.8722 8.19841 35.5944C 7.26191 35.2292 6.59524 34.8006 5.89683 34.102C 5.19841 33.4035 4.7619 32.7367 4.40476 31.8C 4.13492 31.0935 3.80159 30.0377 3.71429 28.0849C 3.61905 25.9734 3.59524 25.3463 3.59524 20.004C 3.59524 14.6616 3.61905 14.0345 3.71429 11.923C 3.80159 9.97023 4.12698 8.91447 4.40476 8.20798C 4.76984 7.27128 5.19841 6.60449 5.89683 5.90593C 6.59524 5.20738 7.26191 4.77079 8.19841 4.41357C 8.90476 4.14368 9.96032 3.81028 11.9127 3.72296C 14.0238 3.61977 14.6508 3.60389 19.9921 3.60389ZM 19.9921 -7.57035e-09C 14.5635 -7.57035e-09 13.881 0.0238142 11.746 0.119071C 9.61905 0.214328 8.16667 0.555666 6.89683 1.04783C 5.57937 1.55586 4.46825 2.24648 3.35714 3.35781C 2.24603 4.46914 1.56349 5.58841 1.04762 6.89819C 0.555555 8.16829 0.214286 9.62096 0.119048 11.7563C 0.0238095 13.8837 -7.56884e-09 14.5664 -7.56884e-09 19.996C -7.56884e-09 25.4257 0.0238095 26.1084 0.119048 28.2437C 0.214286 30.3711 0.555555 31.8238 1.04762 33.1018C 1.55556 34.4195 2.24603 35.5309 3.35714 36.6422C 4.46825 37.7535 5.5873 38.4362 6.89683 38.9522C 8.16667 39.4443 9.61905 39.7857 11.754 39.8809C 13.8889 39.9762 14.5635 40 20 40C 25.4365 40 26.1111 39.9762 28.246 39.8809C 30.373 39.7857 31.8254 39.4443 33.1032 38.9522C 34.4206 38.4441 35.5317 37.7535 36.6429 36.6422C 37.754 35.5309 38.4365 34.4116 38.9524 33.1018C 39.4444 31.8317 39.7857 30.379 39.881 28.2437C 39.9762 26.1084 40 25.4336 40 19.996C 40 14.5584 39.9762 13.8837 39.881 11.7484C 39.7857 9.62096 39.4444 8.16829 38.9524 6.89026C 38.4444 5.57253 37.754 4.4612 36.6429 3.34987C 35.5317 2.23854 34.4127 1.55586 33.1032 1.03989C 31.8333 0.547728 30.381 0.20639 28.246 0.111133C 26.1032 0.0238142 25.4206 -7.57035e-09 19.9921 -7.57035e-09Z"/>
<path id="path8_fill" d="M 10.2698 -1.21126e-07C 4.60317 -1.21126e-07 -1.21102e-07 4.59615 -1.21102e-07 10.2719C -1.21102e-07 15.9476 4.60317 20.5438 10.2698 20.5438C 15.9365 20.5438 20.5397 15.9397 20.5397 10.2719C 20.5397 4.60409 15.9365 -1.21126e-07 10.2698 -1.21126e-07ZM 10.2698 16.9399C 6.5873 16.9399 3.60317 13.9551 3.60317 10.2719C 3.60317 6.58861 6.5873 3.60389 10.2698 3.60389C 13.9524 3.60389 16.9365 6.58861 16.9365 10.2719C 16.9365 13.9551 13.9524 16.9399 10.2698 16.9399Z"/>
<path id="path9_fill" d="M 2.39683 4.7946C 3.72056 4.7946 4.79365 3.72129 4.79365 2.3973C 4.79365 1.07331 3.72056 0 2.39683 0C 1.0731 0 0 1.07331 0 2.3973C 0 3.72129 1.0731 4.7946 2.39683 4.7946Z"/>
<path id="path10_fill" d="M 11.7891 15.0273L 5.03906 15.0273L 5.03906 22L 1.52344 22L 1.52344 4.9375L 12.6328 4.9375L 12.6328 7.78516L 5.03906 7.78516L 5.03906 12.1914L 11.7891 12.1914L 11.7891 15.0273ZM 18.0234 22L 14.625 22L 14.625 9.32031L 18.0234 9.32031L 18.0234 22ZM 14.4258 6.03906C 14.4258 5.53125 14.5938 5.11328 14.9297 4.78516C 15.2734 4.45703 15.7383 4.29297 16.3242 4.29297C 16.9023 4.29297 17.3633 4.45703 17.707 4.78516C 18.0508 5.11328 18.2227 5.53125 18.2227 6.03906C 18.2227 6.55469 18.0469 6.97656 17.6953 7.30469C 17.3516 7.63281 16.8945 7.79688 16.3242 7.79688C 15.7539 7.79688 15.293 7.63281 14.9414 7.30469C 14.5977 6.97656 14.4258 6.55469 14.4258 6.03906ZM 23.9414 9.32031L 24.0469 10.7852C 24.9531 9.65234 26.168 9.08594 27.6914 9.08594C 29.0352 9.08594 30.0352 9.48047 30.6914 10.2695C 31.3477 11.0586 31.6836 12.2383 31.6992 13.8086L 31.6992 22L 28.3125 22L 28.3125 13.8906C 28.3125 13.1719 28.1563 12.6523 27.8438 12.332C 27.5312 12.0039 27.0117 11.8398 26.2852 11.8398C 25.332 11.8398 24.6172 12.2461 24.1406 13.0586L 24.1406 22L 20.7539 22L 20.7539 9.32031L 23.9414 9.32031ZM 33.75 15.5664C 33.75 13.5898 34.1914 12.0156 35.0742 10.8438C 35.9648 9.67188 37.1797 9.08594 38.7188 9.08594C 39.9531 9.08594 40.9727 9.54688 41.7773 10.4688L 41.7773 4L 45.1758 4L 45.1758 22L 42.1172 22L 41.9531 20.6523C 41.1094 21.707 40.0234 22.2344 38.6953 22.2344C 37.2031 22.2344 36.0039 21.6484 35.0977 20.4766C 34.1992 19.2969 33.75 17.6602 33.75 15.5664ZM 37.1367 15.8125C 37.1367 17 37.3437 17.9102 37.7578 18.543C 38.1719 19.1758 38.7734 19.4922 39.5625 19.4922C 40.6094 19.4922 41.3477 19.0508 41.7773 18.168L 41.7773 13.1641C 41.3555 12.2813 40.625 11.8398 39.5859 11.8398C 37.9531 11.8398 37.1367 13.1641 37.1367 15.8125ZM 61.3711 20.7109C 60.5352 21.7266 59.3789 22.2344 57.9023 22.2344C 56.543 22.2344 55.5039 21.8438 54.7852 21.0625C 54.0742 20.2812 53.7109 19.1367 53.6953 17.6289L 53.6953 9.32031L 57.082 9.32031L 57.082 17.5117C 57.082 18.832 57.6836 19.4922 58.8867 19.4922C 60.0352 19.4922 60.8242 19.0938 61.2539 18.2969L 61.2539 9.32031L 64.6523 9.32031L 64.6523 22L 61.4648 22L 61.3711 20.7109ZM 74.0742 18.4961C 74.0742 18.082 73.8672 17.7578 73.4531 17.5234C 73.0469 17.2813 72.3906 17.0664 71.4844 16.8789C 68.4688 16.2461 66.9609 14.9648 66.9609 13.0352C 66.9609 11.9102 67.4258 10.9727 68.3555 10.2227C 69.293 9.46484 70.5156 9.08594 72.0234 9.08594C 73.6328 9.08594 74.918 9.46484 75.8789 10.2227C 76.8477 10.9805 77.332 11.9648 77.332 13.1758L 73.9453 13.1758C 73.9453 12.6914 73.7891 12.293 73.4766 11.9805C 73.1641 11.6602 72.6758 11.5 72.0117 11.5C 71.4414 11.5 71 11.6289 70.6875 11.8867C 70.375 12.1445 70.2188 12.4727 70.2188 12.8711C 70.2188 13.2461 70.3945 13.5508 70.7461 13.7852C 71.1055 14.0117 71.707 14.2109 72.5508 14.3828C 73.3945 14.5469 74.1055 14.7344 74.6836 14.9453C 76.4727 15.6016 77.3672 16.7383 77.3672 18.3555C 77.3672 19.5117 76.8711 20.4492 75.8789 21.168C 74.8867 21.8789 73.6055 22.2344 72.0352 22.2344C 70.9727 22.2344 70.0273 22.0469 69.1992 21.6719C 68.3789 21.2891 67.7344 20.7695 67.2656 20.1133C 66.7969 19.4492 66.5625 18.7344 66.5625 17.9688L 69.7734 17.9688C 69.8047 18.5703 70.0273 19.0313 70.4414 19.3516C 70.8555 19.6719 71.4102 19.832 72.1055 19.832C 72.7539 19.832 73.2422 19.7109 73.5703 19.4688C 73.9063 19.2188 74.0742 18.8945 74.0742 18.4961ZM 85.0078 15.543C 85.0078 14.2852 85.25 13.1641 85.7344 12.1797C 86.2187 11.1953 86.9141 10.4336 87.8203 9.89453C 88.7344 9.35547 89.793 9.08594 90.9961 9.08594C 92.707 9.08594 94.1016 9.60937 95.1797 10.6562C 96.2656 11.7031 96.8711 13.125 96.9961 14.9219L 97.0195 15.7891C 97.0195 17.7344 96.4766 19.2969 95.3906 20.4766C 94.3047 21.6484 92.8477 22.2344 91.0195 22.2344C 89.1914 22.2344 87.7305 21.6484 86.6367 20.4766C 85.5508 19.3047 85.0078 17.7109 85.0078 15.6953L 85.0078 15.543ZM 88.3945 15.7891C 88.3945 16.9922 88.6211 17.9141 89.0742 18.5547C 89.5273 19.1875 90.1758 19.5039 91.0195 19.5039C 91.8398 19.5039 92.4805 19.1914 92.9414 18.5664C 93.4023 17.9336 93.6328 16.9258 93.6328 15.543C 93.6328 14.3633 93.4023 13.4492 92.9414 12.8008C 92.4805 12.1523 91.832 11.8281 90.9961 11.8281C 90.168 11.8281 89.5273 12.1523 89.0742 12.8008C 88.6211 13.4414 88.3945 14.4375 88.3945 15.7891ZM 102.223 9.32031L 102.328 10.7852C 103.234 9.65234 104.449 9.08594 105.973 9.08594C 107.316 9.08594 108.316 9.48047 108.973 10.2695C 109.629 11.0586 109.965 12.2383 109.98 13.8086L 109.98 22L 106.594 22L 106.594 13.8906C 106.594 13.1719 106.438 12.6523 106.125 12.332C 105.812 12.0039 105.293 11.8398 104.566 11.8398C 103.613 11.8398 102.898 12.2461 102.422 13.0586L 102.422 22L 99.0352 22L 99.0352 9.32031L 102.223 9.32031Z"/>
</defs>
</svg>
