<svg width="90" height="113" viewBox="0 0 90 113" version="1.1" xmlns="http://www.w3.org/2000/svg" xmlns:xlink="http://www.w3.org/1999/xlink">
<title>logo-white</title>
<desc>Created using Figma</desc>
<g id="Canvas" transform="translate(-8782 -10794)">
<g id="logo-white">
<g id="Group">
<g id="Group">
<g id="Vector">
<use xlink:href="#path0_fill" transform="translate(8802.6 10903.1)" fill="#FFFFFF"/>
</g>
<g id="Vector">
<use xlink:href="#path1_fill" transform="translate(8806.27 10903.2)" fill="#FFFFFF"/>
</g>
<g id="Vector">
<use xlink:href="#path2_fill" transform="translate(8810.49 10903.2)" fill="#FFFFFF"/>
</g>
<g id="Vector">
<use xlink:href="#path3_fill" transform="translate(8814.43 10903.2)" fill="#FFFFFF"/>
</g>
<g id="Vector">
<use xlink:href="#path4_fill" transform="translate(8817.56 10903.2)" fill="#FFFFFF"/>
</g>
<g id="Vector">
<use xlink:href="#path5_fill" transform="translate(8819.2 10903.2)" fill="#FFFFFF"/>
</g>
<g id="Vector">
<use xlink:href="#path6_fill" transform="translate(8823.19 10903.1)" fill="#FFFFFF"/>
</g>
<g id="Vector">
<use xlink:href="#path7_fill" transform="translate(8828.61 10903.1)" fill="#FFFFFF"/>
</g>
<g id="Vector">
<use xlink:href="#path8_fill" transform="translate(8832.05 10903.1)" fill="#FFFFFF"/>
</g>
<g id="Vector">
<use xlink:href="#path9_fill" transform="translate(8836.15 10903.2)" fill="#FFFFFF"/>
</g>
<g id="Vector">
<use xlink:href="#path10_fill" transform="translate(8840.13 10903.1)" fill="#FFFFFF"/>
</g>
<g id="Vector">
<use xlink:href="#path11_fill" transform="translate(8844.39 10903.1)" fill="#FFFFFF"/>
</g>
<g id="Vector">
<use xlink:href="#path12_fill" transform="translate(8849.1 10903.2)" fill="#FFFFFF"/>
</g>
</g>
<g id="Group">
<g id="Group">
<g id="Vector">
<use xlink:href="#path13_fill" transform="translate(8819.96 10891.6)" fill="#FFFFFF"/>
</g>
<g id="Vector">
<use xlink:href="#path14_fill" transform="translate(8828.39 10891.6)" fill="#FFFFFF"/>
</g>
<g id="Vector">
<use xlink:href="#path15_fill" transform="translate(8847.19 10891.6)" fill="#FFFFFF"/>
</g>
<g id="Vector">
<use xlink:href="#path16_fill" transform="translate(8855.82 10891.6)" fill="#FFFFFF"/>
</g>
<g id="Vector">
<use xlink:href="#path17_fill" transform="translate(8863.23 10891.6)" fill="#FFFFFF"/>
</g>
<g id="Vector">
<use xlink:href="#path18_fill" transform="translate(8837.88 10891.4)" fill="#FFFFFF"/>
</g>
</g>
<g id="Group">
<g id="Group">
<g id="Vector">
<use xlink:href="#path19_fill" transform="translate(8788.36 10891.4)" fill="#FFFFFF"/>
</g>
<g id="Vector">
<use xlink:href="#path20_fill" transform="translate(8791.85 10891.4)" fill="#FFFFFF"/>
</g>
<g id="Vector">
<use xlink:href="#path21_fill" transform="translate(8800.49 10891.4)" fill="#FFFFFF"/>
</g>
<g id="Vector">
<use xlink:href="#path22_fill" transform="translate(8808.31 10891.4)" fill="#FFFFFF"/>
</g>
<g id="Vector">
<use xlink:href="#path23_fill" transform="translate(8782.21 10891.4)" fill="#FFFFFF"/>
</g>
</g>
<g id="Vector">
<use xlink:href="#path24_fill" transform="translate(8786.17 10898.2)" fill="#FFFFFF"/>
</g>
</g>
</g>
<g id="Group">
<g id="Group">
<g id="Vector">
<use xlink:href="#path25_fill" transform="translate(8816.37 10819.1)" fill="#FFFFFF"/>
</g>
<g id="Vector">
<use xlink:href="#path26_fill" transform="translate(8803.01 10819.7)" fill="#FFFFFF"/>
</g>
<g id="Vector">
<use xlink:href="#path27_fill" transform="translate(8821.85 10854)" fill="#FFFFFF"/>
</g>
</g>
<g id="Group">
<g id="Vector">
<use xlink:href="#path28_fill" transform="translate(8782 10794)" fill="#FFFFFF"/>
</g>
</g>
</g>
</g>
</g>
</g>
<defs>
<path id="path0_fill" d="M 2.94974 0.397744L 2.68519 0.967855C 2.27513 0.715948 1.85185 0.609881 1.57407 0.609881C 1.2037 0.609881 0.95238 0.755721 0.95238 1.00763C 0.95238 1.8429 3.00264 1.39212 3.00264 2.77097C 3.00264 3.44714 2.40741 3.8714 1.56085 3.8714C 0.965609 3.8714 0.396825 3.63276 0 3.26153L 0.277779 2.70468C 0.674604 3.06265 1.16402 3.26153 1.56085 3.26153C 2.01058 3.26153 2.27513 3.08917 2.27513 2.79749C 2.27513 1.94896 0.224867 2.42625 0.224867 1.06066C 0.224867 0.411002 0.780423 -3.23688e-06 1.61376 -3.23688e-06C 2.1164 -3.23688e-06 2.59259 0.159096 2.94974 0.397744Z"/>
<path id="path1_fill" d="M 3.30688 2.22739C 3.30688 3.22175 2.68519 3.83163 1.65344 3.83163C 0.621693 3.83163 4.03672e-07 3.22175 4.03672e-07 2.22739L 4.03672e-07 3.23688e-06L 0.648148 3.23688e-06L 0.648148 2.22739C 0.648148 2.86378 1.04497 3.26153 1.66667 3.26153C 2.28836 3.26153 2.67196 2.87704 2.67196 2.22739L 2.67196 3.23688e-06L 3.30688 3.23688e-06L 3.30688 2.22739Z"/>
<path id="path2_fill" d="M 1.71958 2.66491C 1.66667 2.66491 1.60053 2.66491 1.54762 2.66491L 0.648149 2.66491L 0.648149 3.81837L -4.03672e-07 3.81837L -4.03672e-07 -1.61844e-06L 1.54762 -1.61844e-06C 2.52645 -1.61844e-06 3.08201 0.477293 3.08201 1.2993C 3.08201 1.90918 2.80423 2.34671 2.28836 2.53233L 3.14815 3.80512L 2.42063 3.80512L 1.71958 2.66491ZM 1.54762 2.0948C 2.12963 2.0948 2.47354 1.84289 2.47354 1.32582C 2.47354 0.822009 2.12963 0.583364 1.54762 0.583364L 0.648149 0.583364L 0.648149 2.0948L 1.54762 2.0948Z"/>
<path id="path3_fill" d="M 0.634919 0.583364L 0.634919 1.6838L 2.36772 1.6838L 2.36772 2.2539L 0.634919 2.2539L 0.634919 3.81837L 0 3.81837L 0 -1.61844e-06L 2.55291 -1.61844e-06L 2.55291 0.570101L 0.634919 0.570101L 0.634919 0.583364Z"/>
<path id="path4_fill" d="M 8.07343e-07 3.81837L 8.07343e-07 -1.61844e-06L 0.648148 -1.61844e-06L 0.648148 3.81837L 8.07343e-07 3.81837Z"/>
<path id="path5_fill" d="M 2.67196 3.81837L 0.648147 1.08718L 0.648147 3.81837L 0 3.81837L 0 -1.61844e-06L 0.634919 -1.61844e-06L 2.67196 2.74446L 2.67196 -1.61844e-06L 3.30688 -1.61844e-06L 3.30688 3.81837L 2.67196 3.81837Z"/>
<path id="path6_fill" d="M 3.47884 1.96222L 3.47884 3.36759C 3.09524 3.65927 2.52645 3.85815 1.99735 3.85815C 0.873014 3.85815 1.61469e-06 3.00962 1.61469e-06 1.92245C 1.61469e-06 0.835271 0.886244 1.61844e-06 2.03704 1.61844e-06C 2.57937 1.61844e-06 3.12169 0.212133 3.50529 0.530331L 3.13492 1.00762C 2.84391 0.74246 2.43386 0.570104 2.03704 0.570104C 1.25661 0.570104 0.648149 1.16673 0.648149 1.92245C 0.648149 2.67817 1.25661 3.27479 2.03704 3.27479C 2.31482 3.27479 2.6455 3.18198 2.91005 3.00962L 2.91005 1.94896L 3.47884 1.94896L 3.47884 1.96222Z"/>
<path id="path7_fill" d="M 2.94973 0.397744L 2.68518 0.967855C 2.27513 0.715948 1.85185 0.609881 1.57407 0.609881C 1.2037 0.609881 0.95238 0.755721 0.95238 1.00763C 0.95238 1.8429 3.00264 1.39212 3.00264 2.77097C 3.00264 3.44714 2.40741 3.8714 1.56085 3.8714C 0.965608 3.8714 0.396827 3.63276 1.61469e-06 3.26153L 0.277776 2.70468C 0.674601 3.06265 1.16402 3.26153 1.56085 3.26153C 2.01058 3.26153 2.27513 3.08917 2.27513 2.79749C 2.27513 1.94896 0.224867 2.42625 0.224867 1.06066C 0.224867 0.411002 0.780422 -3.23688e-06 1.61376 -3.23688e-06C 2.1164 -3.23688e-06 2.59259 0.159096 2.94973 0.397744Z"/>
<path id="path8_fill" d="M 3.43915 0.583359L 3.06878 1.06066C 2.791 0.755721 2.39418 0.570104 2.01058 0.570104C 1.24339 0.570104 0.648149 1.15346 0.648149 1.90918C 0.648149 2.6649 1.24339 3.26153 2.01058 3.26153C 2.39418 3.26153 2.77778 3.08917 3.06878 2.81075L 3.45238 3.23501C 3.06878 3.6195 2.51323 3.85815 1.98413 3.85815C 0.873018 3.85815 1.61469e-06 3.00962 1.61469e-06 1.92245C 1.61469e-06 0.835271 0.873014 1.61844e-06 1.99735 1.61844e-06C 2.52645 1.61844e-06 3.06878 0.225387 3.43915 0.583359Z"/>
<path id="path9_fill" d="M 2.65873 3.81837L 2.65873 2.24064L 0.634921 2.24064L 0.634921 3.81837L 1.61469e-06 3.81837L 1.61469e-06 -1.61844e-06L 0.634921 -1.61844e-06L 0.634921 1.65728L 2.65873 1.65728L 2.65873 -1.61844e-06L 3.29365 -1.61844e-06L 3.29365 3.81837L 2.65873 3.81837Z"/>
<path id="path10_fill" d="M 4.03439 1.92245C 4.03439 3.00962 3.14815 3.85815 2.01058 3.85815C 0.873016 3.85815 -1.61469e-06 3.00962 -1.61469e-06 1.92245C -1.61469e-06 0.822013 0.886243 1.61844e-06 2.01058 1.61844e-06C 3.16138 1.61844e-06 4.03439 0.835271 4.03439 1.92245ZM 0.64815 1.92245C 0.64815 2.67817 1.26984 3.27479 2.02381 3.27479C 2.76455 3.27479 3.37301 2.67817 3.37301 1.92245C 3.37301 1.16673 2.76455 0.570104 2.02381 0.570104C 1.26984 0.583363 0.64815 1.16673 0.64815 1.92245Z"/>
<path id="path11_fill" d="M 4.03439 1.92245C 4.03439 3.00962 3.14815 3.85815 2.02381 3.85815C 0.886242 3.85815 0 3.00962 0 1.92245C 0 0.822013 0.886242 1.61844e-06 2.02381 1.61844e-06C 3.14815 1.61844e-06 4.03439 0.835271 4.03439 1.92245ZM 0.648147 1.92245C 0.648147 2.67817 1.26984 3.27479 2.02381 3.27479C 2.76455 3.27479 3.37302 2.67817 3.37302 1.92245C 3.37302 1.16673 2.76455 0.570104 2.02381 0.570104C 1.26984 0.583363 0.648147 1.16673 0.648147 1.92245Z"/>
<path id="path12_fill" d="M 2.28836 3.23501L 2.28836 3.81837L -3.22937e-06 3.81837L -3.22937e-06 -1.61844e-06L 0.634924 -1.61844e-06L 0.634924 3.23501L 2.28836 3.23501Z"/>
<path id="path13_fill" d="M 3.30688 0C 5.72751 0 7.39418 1.56447 7.39418 3.85814C 7.39418 6.13856 5.70106 7.7163 3.22751 7.7163L -1.61469e-06 7.7163L -1.61469e-06 0L 3.30688 0ZM 1.95767 6.15183L 3.34656 6.15183C 4.55027 6.15183 5.39683 5.22375 5.39683 3.87141C 5.39683 2.50581 4.49735 1.56447 3.25397 1.56447L 1.94444 1.56447L 1.94444 6.15183L 1.95767 6.15183Z"/>
<path id="path14_fill" d="M 1.95767 1.55122L 1.95767 3.07591L 5.62169 3.07591L 5.62169 4.61387L 1.95767 4.61387L 1.95767 6.16508L 6.13757 6.16508L 6.13757 7.70304L -7.51897e-15 7.70304L -7.51897e-15 0L 6.01852 0L 6.01852 1.53795L 1.95767 1.53795L 1.95767 1.55122Z"/>
<path id="path15_fill" d="M 5.37037 7.7163L 1.83862 2.96985L 1.83862 7.7163L 8.07343e-07 7.7163L 8.07343e-07 0L 1.71957 0L 5.26455 4.75971L 5.26455 0L 7.08995 0L 7.08995 7.70303L 5.37037 7.70303L 5.37037 7.7163Z"/>
<path id="path16_fill" d="M 3.30688 0C 5.72752 0 7.39418 1.56447 7.39418 3.85814C 7.39418 6.13856 5.70106 7.7163 3.22751 7.7163L 3.22937e-06 7.7163L 3.22937e-06 0L 3.30688 0ZM 1.95767 6.15183L 3.35979 6.15183C 4.56349 6.15183 5.41005 5.22375 5.41005 3.87141C 5.41005 2.50581 4.51058 1.56447 3.26719 1.56447L 1.95767 1.56447L 1.95767 6.15183Z"/>
<path id="path17_fill" d="M 2.56614 6.28441L 2.01058 7.70304L 3.22937e-06 7.70304L 3.32011 -3.23688e-06L 5.33069 -3.23688e-06L 8.57143 7.70304L 6.48148 7.70304L 5.92593 6.28441L 2.56614 6.28441ZM 4.24603 1.94896L 3.12169 4.79948L 5.34391 4.79948L 4.24603 1.94896Z"/>
<path id="path18_fill" d="M 7.00728 1.17336C 5.40675 -0.391117 2.80092 -0.391117 1.2004 1.17336C -0.400134 2.73783 -0.400134 5.27015 1.2004 6.83463C 2.80092 8.3991 5.40675 8.3991 7.00728 6.83463C 8.60781 5.27015 8.60781 2.73783 7.00728 1.17336ZM 2.33796 2.27379C 3.13161 1.50481 4.32209 1.35897 5.26124 1.83627L 1.875 5.13757C 1.38558 4.20949 1.54431 3.04277 2.33796 2.27379ZM 5.88294 5.73419C 5.08929 6.50316 3.89881 6.64901 2.95966 6.17172L 6.3459 2.87041C 6.82209 3.79849 6.66336 4.96521 5.88294 5.73419Z"/>
<path id="path19_fill" d="M 2.01836e-07 7.70304L 2.01836e-07 3.23688e-06L 1.95767 3.23688e-06L 1.95767 7.70304L 2.01836e-07 7.70304Z"/>
<path id="path20_fill" d="M 5.37037 7.70304L 1.83862 2.95659L 1.83862 7.70304L 4.03672e-07 7.70304L 4.03672e-07 3.23688e-06L 1.71958 3.23688e-06L 5.26455 4.75971L 5.26455 3.23688e-06L 7.10317 3.23688e-06L 7.10317 7.70304L 5.37037 7.70304Z"/>
<path id="path21_fill" d="M 5.1455 7.70304L 5.1455 4.70668L 1.95767 4.70668L 1.95767 7.70304L 8.07343e-07 7.70304L 8.07343e-07 3.23688e-06L 1.95767 3.23688e-06L 1.95767 3.16872L 5.1455 3.16872L 5.1455 3.23688e-06L 7.10317 3.23688e-06L 7.10317 7.70304L 5.1455 7.70304Z"/>
<path id="path22_fill" d="M 2.56614 6.28441L 2.01058 7.70304L -4.03672e-07 7.70304L 3.32011 3.23688e-06L 5.33069 3.23688e-06L 8.57143 7.70304L 6.48148 7.70304L 5.92593 6.28441L 2.56614 6.28441ZM 4.25926 1.94896L 3.13492 4.79948L 5.35714 4.79948L 4.25926 1.94896Z"/>
<path id="path23_fill" d="M 3.42593 6.04576L 1.94444 6.04576L 1.94444 3.23688e-06L -5.0459e-08 3.23688e-06L -5.0459e-08 7.68978L 1.78571 7.68978L 3.42593 6.04576Z"/>
<path id="path24_fill" d="M -1.00918e-07 0.92808L 0.912698 0.92808L 0.912698 3.23688e-06L -1.00918e-07 0.92808Z"/>
<path id="path25_fill" d="M 34.0741 5.84688C 26.2831 -1.94896 13.6243 -1.94896 5.83333 5.84688C -1.94444 13.6427 -1.94444 26.3441 5.83333 34.1532C 13.6111 41.9491 26.2831 41.9491 34.0741 34.1532C 41.8651 26.3441 41.8651 13.6427 34.0741 5.84688ZM 11.336 11.3491C 15.1852 7.49091 20.9788 6.74845 25.582 9.13493L 9.12698 25.6282C 6.74603 21.0143 7.48677 15.2072 11.336 11.3491ZM 28.5979 28.6511C 24.7487 32.5092 18.955 33.2517 14.3519 30.8652L 30.8069 14.3719C 33.1746 18.9858 32.4339 24.7929 28.5979 28.6511Z"/>
<path id="path26_fill" d="M 17.209 30.6796L 8.76984 30.6796L 8.76984 -8.09219e-07L 8.07343e-07 -8.09219e-07L 8.07343e-07 38.9129L 8.98148 38.9129L 17.209 30.6796Z"/>
<path id="path27_fill" d="M 8.07343e-07 4.64038L 4.57672 4.64038L 4.57672 -8.09219e-07L 8.07343e-07 4.64038Z"/>
<path id="path28_fill" d="M 45 90.1958C 20.1852 90.1958 -1.00918e-07 69.9637 -1.00918e-07 45.0913C -1.00918e-07 20.2321 20.1852 0 45 0C 69.8148 0 90 20.2321 90 45.1045C 90 69.9637 69.8148 90.1958 45 90.1958ZM 45 6.37721C 23.7037 6.37721 6.37566 23.7455 6.37566 45.0913C 6.37566 66.437 23.7037 83.8186 45 83.8186C 66.2963 83.8186 83.6243 66.4503 83.6243 45.0913C 83.6243 23.7455 66.2963 6.37721 45 6.37721Z"/>
</defs>
</svg>
