<svg width="87" height="17" viewBox="0 0 87 17" version="1.1" xmlns="http://www.w3.org/2000/svg" xmlns:xlink="http://www.w3.org/1999/xlink">
<title>Rate</title>
<desc>Created using Figma</desc>
<g id="Canvas" transform="translate(-12750 -5710)">
<g id="Rate">
<g id="Vector">
<use xlink:href="#path0_fill" transform="translate(12750 5711)"/>
</g>
<g id="Vector">
<use xlink:href="#path0_fill" transform="translate(12767.7 5711)"/>
</g>
<g id="Vector">
<use xlink:href="#path0_fill" transform="translate(12784.7 5711)"/>
</g>
<g id="Vector">
<use xlink:href="#path0_fill" transform="translate(12801.7 5711)"/>
</g>
<g id="Vector">
<use xlink:href="#path1_fill" transform="translate(12819.2 5710)"/>
</g>
</g>
</g>
<defs>
<path id="path0_fill" d="M 10.048 4.813L 7.665 1.34277e-06L 5.282 4.813L 1.14441e-07 5.623L 3.833 9.414L 2.854 14.866L 7.665 12.31L 12.476 14.866L 11.498 9.414L 15.33 5.623L 10.048 4.813Z"/>
<path id="path1_fill" d="M 17.2821 6.313C 17.1651 5.954 16.8561 5.691 16.4821 5.634L 11.7141 4.904L 9.56206 0.556001C 9.39406 0.216001 9.04607 1.34277e-06 8.66607 1.34277e-06C 8.28607 1.34277e-06 7.93806 0.216001 7.77006 0.556001L 5.61706 4.904L 0.849064 5.634C 0.475064 5.691 0.166061 5.954 0.0490606 6.313C -0.0679394 6.673 0.0280617 7.067 0.297062 7.333L 3.75506 10.754L 2.86906 15.689C 2.80206 16.066 2.95506 16.448 3.26406 16.674C 3.57306 16.899 3.98406 16.928 4.32306 16.749L 8.66507 14.442L 13.0071 16.749C 13.1541 16.827 13.3161 16.866 13.4761 16.866C 13.6841 16.866 13.8911 16.801 14.0651 16.674C 14.3741 16.448 14.5271 16.066 14.4601 15.689L 13.5741 10.754L 17.0321 7.333C 17.3031 7.068 17.3991 6.673 17.2821 6.313ZM 11.7951 9.703C 11.5611 9.934 11.4561 10.266 11.5141 10.591L 12.1291 14.018L 9.13507 12.427C 8.98807 12.349 8.82707 12.31 8.66607 12.31C 8.50506 12.31 8.34406 12.349 8.19706 12.427L 5.20306 14.018L 5.81807 10.591C 5.87607 10.267 5.77106 9.935 5.53706 9.703L 3.11806 7.31L 6.43406 6.802C 6.75606 6.753 7.03407 6.55 7.17907 6.258L 8.66607 3.255L 10.1531 6.258C 10.2981 6.55 10.5751 6.753 10.8981 6.802L 14.2151 7.31L 11.7951 9.703Z"/>
</defs>
</svg>
