<svg width="402" height="36" viewBox="0 0 402 36" version="1.1" xmlns="http://www.w3.org/2000/svg" xmlns:xlink="http://www.w3.org/1999/xlink">
<title>text</title>
<desc>Created using Figma</desc>
<g id="Canvas" transform="translate(-12590 -6595)">
<g id="text">
<g id="Group">
<g id="Vector">
<use xlink:href="#path0_fill" transform="translate(12759.3 6595.69)" fill="#FFFFFF"/>
</g>
<g id="Vector">
<use xlink:href="#path1_fill" transform="translate(12797 6595.69)" fill="#FFFFFF"/>
</g>
<g id="Vector">
<use xlink:href="#path2_fill" transform="translate(12881.1 6595.69)" fill="#FFFFFF"/>
</g>
<g id="Vector">
<use xlink:href="#path3_fill" transform="translate(12919.8 6595.69)" fill="#FFFFFF"/>
</g>
<g id="Vector">
<use xlink:href="#path4_fill" transform="translate(12952.9 6595.75)" fill="#FFFFFF"/>
</g>
<g id="Vector">
<use xlink:href="#path5_fill" transform="translate(12839.5 6595)" fill="#FFFFFF"/>
</g>
</g>
<g id="Group">
<g id="Group">
<g id="Vector">
<use xlink:href="#path6_fill" transform="translate(12617.8 6595.03)" fill="#FFFFFF"/>
</g>
<g id="Vector">
<use xlink:href="#path7_fill" transform="translate(12633.5 6595.03)" fill="#FFFFFF"/>
</g>
<g id="Vector">
<use xlink:href="#path8_fill" transform="translate(12672.1 6595.03)" fill="#FFFFFF"/>
</g>
<g id="Vector">
<use xlink:href="#path9_fill" transform="translate(12707.1 6595.03)" fill="#FFFFFF"/>
</g>
<g id="Vector">
<use xlink:href="#path10_fill" transform="translate(12590.3 6595.03)" fill="#FFFFFF"/>
</g>
</g>
<g id="Vector">
<use xlink:href="#path11_fill" transform="translate(12608 6625.43)" fill="#FFFFFF"/>
</g>
</g>
</g>
</g>
<defs>
<path id="path0_fill" d="M 14.8013 0C 25.6359 0 33.0957 7.0331 33.0957 17.3444C 33.0957 27.596 25.5175 34.6887 14.4461 34.6887L -7.2272e-06 34.6887L -7.2272e-06 0L 14.8013 0ZM 8.76238 27.6556L 14.9789 27.6556C 20.3666 27.6556 24.1558 23.4834 24.1558 17.404C 24.1558 11.2649 20.1298 7.0331 14.5645 7.0331L 8.70317 7.0331L 8.70317 27.6556L 8.76238 27.6556Z"/>
<path id="path1_fill" d="M 8.76237 6.97352L 8.76237 13.8278L 25.1622 13.8278L 25.1622 20.7417L 8.76237 20.7417L 8.76237 27.7152L 27.4712 27.7152L 27.4712 34.6291L -3.36543e-14 34.6291L -3.36543e-14 0L 26.9384 0L 26.9384 6.91389L 8.76237 6.91389L 8.76237 6.97352Z"/>
<path id="path2_fill" d="M 24.0373 34.6887L 8.22953 13.351L 8.22953 34.6887L 3.6136e-06 34.6887L 3.6136e-06 0L 7.69667 0L 23.5637 21.3974L 23.5637 0L 31.734 0L 31.734 34.6291L 24.0373 34.6291L 24.0373 34.6887Z"/>
<path id="path3_fill" d="M 14.8013 0C 25.6359 0 33.0957 7.0331 33.0957 17.3444C 33.0957 27.596 25.5175 34.6887 14.4461 34.6887L 1.44544e-05 34.6887L 1.44544e-05 0L 14.8013 0ZM 8.76239 27.6556L 15.0381 27.6556C 20.4258 27.6556 24.2149 23.4834 24.2149 17.404C 24.2149 11.2649 20.189 7.0331 14.6237 7.0331L 8.76239 7.0331L 8.76239 27.6556Z"/>
<path id="path4_fill" d="M 11.4858 28.2517L 8.99918 34.6291L 1.44544e-05 34.6291L 14.8605 -1.45514e-05L 23.8597 -1.45514e-05L 38.365 34.6291L 29.0106 34.6291L 26.524 28.2517L 11.4858 28.2517ZM 19.0049 8.76158L 13.9724 21.5762L 23.9189 21.5762L 19.0049 8.76158Z"/>
<path id="path5_fill" d="M 31.364 5.27484C 24.2002 -1.75827 12.5367 -1.75827 5.37287 5.27484C -1.79097 12.308 -1.79097 23.6921 5.37287 30.7252C 12.5367 37.7583 24.2002 37.7583 31.364 30.7252C 38.5278 23.6921 38.5278 12.308 31.364 5.27484ZM 10.4645 10.2219C 14.0168 6.7649 19.3453 6.10928 23.5489 8.25497L 8.39234 23.096C 6.20175 18.9238 6.91221 13.6788 10.4645 10.2219ZM 26.3315 25.7781C 22.7792 29.2351 17.4508 29.8907 13.2472 27.745L 28.4037 12.904C 30.5351 17.0762 29.8247 22.3212 26.3315 25.7781Z"/>
<path id="path6_fill" d="M 9.03401e-07 34.6291L 9.03401e-07 1.45514e-05L 8.76238 1.45514e-05L 8.76238 34.6291L 9.03401e-07 34.6291Z"/>
<path id="path7_fill" d="M 24.0373 34.6291L 8.22953 13.2914L 8.22953 34.6291L 1.8068e-06 34.6291L 1.8068e-06 1.45514e-05L 7.69669 1.45514e-05L 23.5637 21.3973L 23.5637 1.45514e-05L 31.7932 1.45514e-05L 31.7932 34.6291L 24.0373 34.6291Z"/>
<path id="path8_fill" d="M 23.0308 34.6291L 23.0308 21.159L 8.76237 21.159L 8.76237 34.6291L 3.6136e-06 34.6291L 3.6136e-06 1.45514e-05L 8.76237 1.45514e-05L 8.76237 14.245L 23.0308 14.245L 23.0308 1.45514e-05L 31.7932 1.45514e-05L 31.7932 34.6291L 23.0308 34.6291Z"/>
<path id="path9_fill" d="M 11.4858 28.2516L 8.9992 34.6291L -1.8068e-06 34.6291L 14.8605 1.45514e-05L 23.8597 1.45514e-05L 38.365 34.6291L 29.0106 34.6291L 26.524 28.2516L 11.4858 28.2516ZM 19.0641 8.76158L 14.0316 21.5761L 23.9781 21.5761L 19.0641 8.76158Z"/>
<path id="path10_fill" d="M 15.3342 27.1788L 8.70317 27.1788L 8.70317 1.45514e-05L -2.2585e-07 1.45514e-05L -2.2585e-07 34.5695L 7.99271 34.5695L 15.3342 27.1788Z"/>
<path id="path11_fill" d="M -4.517e-07 4.1722L 4.08516 4.1722L 4.08516 1.45514e-05L -4.517e-07 4.1722Z"/>
</defs>
</svg>
